<svg viewBox="0 0 200 200" xmlns="http://www.w3.org/2000/svg">
  <defs>
    <clipPath id="circle"><circle cx="100" cy="100" r="98"/></clipPath>
  </defs>
  <g clip-path="url(#circle)">
    <!-- night blue sky -->
    <rect width="200" height="200" fill="#152A78"/>
    <!-- sun with sunset bands -->
    <circle cx="100" cy="88" r="74" fill="#FCD116"/>
    <clipPath id="sun"><circle cx="100" cy="88" r="74"/></clipPath>
    <g clip-path="url(#sun)">
      <rect x="20" y="44" width="160" height="18" fill="#F7931E"/>
      <rect x="20" y="64" width="160" height="14" fill="#F15A29"/>
      <rect x="20" y="80" width="160" height="10" fill="#E8433A" opacity="0.85"/>
      <ellipse cx="70" cy="56" rx="30" ry="4" fill="#FBD8B0" opacity="0.8"/>
      <ellipse cx="135" cy="72" rx="34" ry="4" fill="#F9C08A" opacity="0.7"/>
    </g>
    <!-- mountains -->
    <path d="M -10 128 Q 30 92 62 116 Q 92 96 122 118 Q 156 98 210 126 L 210 150 L -10 150 Z" fill="#1E7A34"/>
    <path d="M -10 138 Q 40 116 90 130 Q 150 112 210 136 L 210 155 L -10 155 Z" fill="#166028" opacity="0.9"/>
    <!-- palm -->
    <path d="M 98 118 L 104 118 L 102 62 L 100 62 Z" fill="#7A4A22"/>
    <g fill="#1E7A34">
      <path d="M 101 63 Q 66 48 42 60 Q 72 62 101 70 Z"/>
      <path d="M 101 63 Q 136 48 160 60 Q 130 62 101 70 Z"/>
      <path d="M 101 62 Q 76 30 50 30 Q 79 42 100 65 Z"/>
      <path d="M 101 62 Q 126 30 152 30 Q 123 42 102 65 Z"/>
      <path d="M 101 60 Q 98 26 82 16 Q 96 36 99 63 Z"/>
      <path d="M 101 60 Q 104 26 120 16 Q 106 36 103 63 Z"/>
    </g>
    <!-- ground -->
    <rect x="0" y="146" width="200" height="54" fill="#F5D327"/>
    <rect x="0" y="143" width="200" height="5" fill="#1E7A34"/>
    <!-- grass tufts -->
    <g fill="#1E7A34">
      <path d="M 26 186 q 2.5 -11 5.5 0 q 2 -10 5 0 q 2.5 -8 5 0 Z"/>
      <path d="M 158 180 q 2.5 -11 5.5 0 q 2 -10 5 0 q 2.5 -8 5 0 Z"/>
    </g>
    <!-- elephant -->
    <g>
      <ellipse cx="94" cy="178" rx="54" ry="6" fill="#0E0E0E" opacity="0.75"/>
      <path d="M 62 132 Q 64 113 86 109 Q 115 105 132 115 Q 149 125 145 147 Q 143 166 134 173 L 127 173 L 126 158 Q 110 163 96 159 L 96 172 L 88 172 Q 81 164 81 150 Q 70 145 66 138 Q 62 135 62 132 Z" fill="#9B9B9B"/>
      <circle cx="76" cy="120" r="14.5" fill="#A6A6A6"/>
      <path d="M 81 111 Q 96 105 97 118 Q 96 128 86 128 Q 80 123 81 111 Z" fill="#8F8F8F"/>
      <path d="M 63 113 Q 42 113 30 98 Q 22 89 25 81 Q 30 91 40 96 Q 53 102 65 103 Z" fill="#9B9B9B"/>
      <path d="M 74 128 Q 60 133 48 128 Q 60 138 75 135 Z" fill="#EFEFEA"/>
      <path d="M 77 134 Q 65 141 54 138 Q 65 147 79 141 Z" fill="#EFEFEA"/>
      <circle cx="74" cy="117" r="2.2" fill="#1B1B1B"/>
    </g>
  </g>
  <circle cx="100" cy="100" r="97" fill="none" stroke="#FCD116" stroke-width="4"/>
</svg>
